<svg width="64" height="64" viewBox="0 0 64 64" fill="none" xmlns="http://www.w3.org/2000/svg">
<path d="M8.00104 40.5333C5.69064 40.5333 3.73438 38.7563 3.73438 36.2667C3.73438 35.3323 3.95624 34.4 4.53438 32L12.2677 3.5328C13.0784 0.733866 15.0389 0 16.5344 0H40.001C42.6336 0 44.2677 2.26773 44.2677 4.26667C44.2677 5.2672 44.001 6.50027 43.5338 8.53333L40.001 23.4667H54.9344C57.4346 23.4667 59.201 25.4997 59.201 27.7333C59.201 29.4336 58.3349 30.6667 57.0016 32L27.201 61.5552C25.7824 63.0592 24.7157 64 22.9344 64C21.0869 64 18.6677 62.6091 18.6677 59.7333C18.6677 58.8352 18.8554 57.7579 19.3781 55.4667L22.9344 40.5333H8.00104Z" fill="#0047FF"/>
</svg>
